PathFileType	4	(X/Y/Z)	47_1_42_p0_0-438_filt_butterworth.trc
DataRate	CameraRate	NumFrames	NumMarkers	Units	OrigDataRate	OrigDataStartFrame	OrigNumFrames
41.0	41.0	6	27	m	41.0	219	438
Frame#	Time	RHip			RKnee			RAnkle			RBigToe			RSmallToe			RHeel			LHip			LKnee			LAnkle			LBigToe			LSmallToe			LHeel			Neck			Head			Nose			RShoulder			RElbow			RWrist			RThumb			RIndex			RPinky			LShoulder			LElbow			LWrist			LThumb			LIndex			LPinky			
		X1	Y1	Z1	X2	Y2	Z2	X3	Y3	Z3	X4	Y4	Z4	X5	Y5	Z5	X6	Y6	Z6	X7	Y7	Z7	X8	Y8	Z8	X9	Y9	Z9	X10	Y10	Z10	X11	Y11	Z11	X12	Y12	Z12	X13	Y13	Z13	X14	Y14	Z14	X15	Y15	Z15	X16	Y16	Z16	X17	Y17	Z17	X18	Y18	Z18	X19	Y19	Z19	X20	Y20	Z20	X21	Y21	Z21	X22	Y22	Z22	X23	Y23	Z23	X24	Y24	Z24	X25	Y25	Z25	X26	Y26	Z26	X27	Y27	Z27	
219	5.341463414634147	0.3376987350036591	0.3941950912147356	-0.21494532237941066	0.3326140262668603	0.5784558727484613	0.21966478566902553	0.3184087551370703	0.8065588810976573	0.579894723800785	0.351983804988101	0.6749658314360483	0.6510140477292654	0.40576416656180764	0.7186891712712077	0.6431451755395364	0.27746737426384505	0.9465374978707233	0.6232569003999759	0.14412880453021376	0.380413316413595	-0.18234117581383386	0.1350537687668574	0.5866017585602062	0.2360420572503131	0.1288288597800026	0.8210453075688813	0.6119491802197468	0.21098833913124332	0.6386527741833095	0.6549274496445612	0.14529293923839634	0.6904045804603349	0.6648119038919185	0.1302704034581498	0.8857999632213136	0.631344902030919	0.2644066196563241	0.031189979750057262	-0.5561256513526407	0.3044487269971824	-0.20323382365125636	-0.7115746642872779	0.31116241302482994	-0.15397317151021725	-0.5669188455944774	0.41526306324621987	0.059499360126331516	-0.5279065692505058	0.5859412060593694	0.025656421394920484	-0.36562875249569815	0.7670811440813872	-0.0701930725712766	-0.20368562995569772	0.8319380999292965	-0.13776144401037896	-0.10208218198961547	0.8593102246489508	-0.10726451274588591	-0.08878021223974077	0.8131438902563289	-0.045123328924327015	-0.11083463200691351	0.1262251421855979	0.028034654838221464	-0.5035053089621802	-0.02974008900770386	-0.061521415315876404	-0.33875885081348694	-0.1655386761313642	-0.16885003085920539	-0.16403148429848857	-0.21035029979847183	-0.16487878431131284	-0.06431976689632152	-0.21371644719584462	-0.20061979048316947	-0.0516974429719195	-0.20252483506383584	-0.18887258146511543	-0.06614169209390303
220	5.365853658536586	0.3393783769908394	0.39252599101576424	-0.2057340833735323	0.3327271564741071	0.579037383286503	0.22070959396155532	0.31914089595128337	0.8013982814693805	0.5783358622105952	0.3519813566791015	0.6753305564895811	0.6512178250836931	0.405765332306019	0.7187734527373615	0.6431504612984784	0.277413517004068	0.9466779200361659	0.6230529356483734	0.14293152756246388	0.38052135688445254	-0.17824093036184513	0.13495475158739256	0.5874349345531186	0.2360535316187368	0.12867121620467364	0.8184741586284248	0.6097970114369076	0.21118055441543987	0.6395433137165982	0.6537387856299706	0.14533889693023808	0.6891993547607103	0.6628204107405169	0.13010061912819704	0.8859934823433142	0.6313255781498704	0.26409281658408323	0.030733161680126783	-0.5626965069094778	0.3043160877597931	-0.20409541873356604	-0.719872989818388	0.3127011136020914	-0.15218684348961897	-0.5742664817297913	0.4152296220178682	0.058715115598202236	-0.5345317360362557	0.5876110209830839	-0.0047807088750800334	-0.3765787238061135	0.7738960355025724	-0.09667375850814515	-0.2323836561585854	0.8317481274113322	-0.17290350225197468	-0.138069268992638	0.8587447880973763	-0.13720849655235123	-0.1311745501745587	0.8182717134413691	-0.09015607378223772	-0.14442538261488375	0.1270463313384393	0.02929789043063749	-0.5106662141442739	-0.02884824014956045	-0.08404517430400998	-0.3563161348456719	-0.14838625190179613	-0.21306592145694428	-0.19361203809175045	-0.1963726517179537	-0.22332442427115046	-0.0879202849786876	-0.1994169137145302	-0.248367018903755	-0.08026186680278902	-0.197350051861066	-0.23688334086584778	-0.09363173585574339
221	5.390243902439025	0.34081429506382643	0.3942193429285297	-0.19973349199862622	0.33275247258916835	0.5792123882853927	0.22072950274764397	0.32207523612396866	0.7982339237302217	0.5784985244333993	0.35199676783639033	0.6761867496472445	0.6514003332593836	0.4057723899466384	0.7189823489978457	0.6430578481026341	0.27742609153322023	0.9466683045225062	0.6230589610384084	0.142194013714789	0.3824792228545551	-0.17369749888616048	0.1355822926183869	0.5879400726703017	0.2360086968294559	0.12891419686631975	0.8168473442875654	0.6085357338938032	0.21214510010629775	0.6401501779301927	0.653537325316971	0.1448085898548726	0.6894066579840565	0.6634623975084517	0.129973619404623	0.886075884570599	0.631368064623758	0.26359205054243745	0.026253219458359733	-0.5662932551634525	0.3053044203171113	-0.2038710533044943	-0.7262219435831987	0.312737613505976	-0.1517050451756413	-0.581803518985267	0.41520514162416733	0.06107231625639415	-0.5425154393322048	0.5874269057485829	-0.035593479996539924	-0.3780786359633411	0.7752841969617235	-0.12273059920313731	-0.26116049447078593	0.8351772641356773	-0.18989216927163974	-0.1789663093901838	0.8605022920438476	-0.1739165509944943	-0.17120212449720318	0.829631817142841	-0.137821427475463	-0.17405170190720104	0.12639183447224436	0.029170132100135457	-0.5192872497191989	-0.03191405410376476	-0.0905292220638218	-0.37876317745678817	-0.1374285881199365	-0.2432808708488536	-0.2245392832764137	-0.17904474535095816	-0.26442801078567	-0.11691119298637812	-0.19005925178194158	-0.2821496313710745	-0.11076436877890646	-0.1884754419252125	-0.26454067356150135	-0.12260260066545164
222	5.414634146341464	0.3409818149746538	0.3989316872170458	-0.1976226717468531	0.3328486834626762	0.5791160854844655	0.22076903685579347	0.32624285767446326	0.7965507383916299	0.5784225032664865	0.3522564293043067	0.6764707219511471	0.6515564595992267	0.4057921677498256	0.7192361960568036	0.6428313399924753	0.2774897484575438	0.9463744113796716	0.6232158262648417	0.14215178299414466	0.38302306712364337	-0.17220636099333017	0.13557257143304513	0.5881697440913602	0.23597156961863947	0.12944852148019093	0.8173237188541347	0.6084276401312414	0.2126937355251826	0.6400143690671916	0.6538550825181279	0.14213492700564503	0.6941022782996504	0.6663710070240424	0.12994211631261832	0.8859907598735375	0.6313440776518978	0.2638065166578541	0.021918233081604118	-0.5707723008096748	0.3064976842361078	-0.20159892876834398	-0.7324096776883688	0.3127436810331319	-0.1508147532977547	-0.5891228891052885	0.4140126637704644	0.06405556057680568	-0.553208523914386	0.5878743892220486	-0.055693360877198346	-0.3816124911426783	0.7666616561781976	-0.18230812583121167	-0.28791166789377576	0.8335599716562069	-0.22237061371021535	-0.21986125967586898	0.8579096994980556	-0.23385035239885177	-0.2059308375603484	0.83334167982048	-0.18610388396034022	-0.20625103411061368	0.12508398687670247	0.029692588046554294	-0.5293558459637437	-0.03677238467782299	-0.08854123488568254	-0.39846673713752534	-0.13335575879701833	-0.2632494776963062	-0.25391035521654653	-0.15896110062881758	-0.2997612593454067	-0.14636212898734174	-0.18074694069651903	-0.31519826314232036	-0.13958647743697988	-0.17239240361732808	-0.2935185487463387	-0.15160368294823648
223	5.439024390243903	0.3407154737809047	0.40397654721033305	-0.1955302769808529	0.33301939943676573	0.5785863826751647	0.22168405595900387	0.3288647058761816	0.7977489147757096	0.5771223794807347	0.3523876026179098	0.6742663831731321	0.6517307170310788	0.4058081499639951	0.7194027374763576	0.6426724287362777	0.2775558679597296	0.9454336136151682	0.6234013136954121	0.14229956517153122	0.37890871677591276	-0.17284800601621275	0.13542899563652067	0.5883103800114315	0.23595521558360588	0.1297613283876669	0.8179393970831856	0.6086068581410747	0.21160703565597833	0.638758368608343	0.6551085477524468	0.138048733452372	0.7012175377749029	0.6675865899445094	0.12997363717019145	0.8859275498003488	0.6312660101944899	0.2672922899467133	0.021587958378888064	-0.5774334294750092	0.30480324846157747	-0.19721355522239276	-0.741138541248014	0.3126786489572733	-0.15041898028102296	-0.5955674888523278	0.41189970747547416	0.06641593982065856	-0.5654165496647117	0.5886909497927654	-0.06690197650877296	-0.3980842714742611	0.747385377864876	-0.26738299802889787	-0.31583295829100677	0.8171797782227143	-0.2794410660258445	-0.2604193934317089	0.8422128916835712	-0.2959821265555602	-0.2453438090666256	0.8223366901130216	-0.23712558442965903	-0.24792454104182587	0.12633527329043331	0.028852322402665866	-0.539196588072109	-0.0371687872442663	-0.09802859864674708	-0.4186962954675878	-0.12591045741631718	-0.285711652891718	-0.28652994929303016	-0.13487602487278777	-0.33744529585350735	-0.179119226961556	-0.16225184492566785	-0.3507116026420356	-0.16996039748068711	-0.15332549639686666	-0.3295327192621373	-0.183316085571828
224	5.463414634146342	0.34070429217250986	0.40551004447568073	-0.19232352270572045	0.33310516918466315	0.5791292831944673	0.2224918999041041	0.328570571669101	0.7991095091847155	0.5751442477881421	0.35130828712400486	0.6678898271876554	0.6517910249895443	0.4058075319564251	0.7193927909117129	0.6428528536514164	0.2774687494452177	0.9456292664992805	0.623201394580061	0.1426240624187474	0.3721386303375782	-0.17325409379611612	0.13544388268650617	0.5884980697490507	0.23596572047426495	0.12968360468743506	0.816937843859044	0.6087167595399112	0.20989505376874687	0.6382305586518408	0.6571017427361294	0.1351386786454629	0.7056685442414419	0.6659960199161609	0.13002276194871043	0.8859771261239012	0.631246242730036	0.27266885949246755	0.02336472237203696	-0.5841055902213262	0.3002615170847355	-0.1874395717066501	-0.7545417660297651	0.311230683152214	-0.1459257578770165	-0.6033786873746823	0.4103664398932824	0.06806586649233987	-0.577239647514461	0.5859868147857794	-0.07696816342398011	-0.4284112305698033	0.7257018749828956	-0.3211937138080755	-0.3570884024861437	0.7939554210296922	-0.33491500747654956	-0.3074516657134465	0.8178568639991098	-0.3356357735846856	-0.2974541902624486	0.800655474727836	-0.2919931223839685	-0.30259662879927307	0.13300448504191975	0.02501213597761933	-0.5499231425569806	-0.02843390163292232	-0.11678118288944563	-0.45084401745035824	-0.10193400371817105	-0.31983705761793974	-0.32855780188388434	-0.10185939287534423	-0.3776584237766254	-0.22288364825983198	-0.1258989746660779	-0.3912657415134746	-0.2116730492397219	-0.1301564174901622	-0.36693007856337073	-0.22765295883649211
